<svg width="139" height="24" viewBox="0 0 139 24" fill="none" xmlns="http://www.w3.org/2000/svg">
<path d="M14.8789 8.61523C14.293 6.62305 12.6816 5.39258 10.3672 5.39258C7.08594 5.39258 4.85938 7.91211 4.85938 12.3652C4.85938 16.8477 7.02734 19.3965 10.3965 19.3965C13.4287 19.3965 15.2305 17.6826 15.2891 15.002H10.6895V11.6914H19.5371V14.3281C19.5371 19.8945 15.7285 23.293 10.3672 23.293C4.41992 23.293 0.376953 19.1328 0.376953 12.4238C0.376953 5.53906 4.68359 1.49609 10.2793 1.49609C15.0547 1.49609 18.7461 4.42578 19.332 8.61523H14.8789ZM23.668 23V7.0918H28.0039V23H23.668ZM25.8359 5.01172C24.5176 5.01172 23.4629 4.01562 23.4629 2.81445C23.4629 1.58398 24.5176 0.587891 25.8359 0.587891C27.125 0.587891 28.1797 1.58398 28.1797 2.81445C28.1797 4.01562 27.125 5.01172 25.8359 5.01172ZM39.752 7.0918V10.3438H36.7637V18.1074C36.7637 19.3672 37.3789 19.6895 38.2578 19.7188C38.6973 19.7188 39.459 19.6895 39.9863 19.6309V23.0586C39.5176 23.1465 38.7559 23.2051 37.6719 23.2051C34.5371 23.2051 32.3984 21.7988 32.4277 18.7227V10.3438H30.2305V7.0918H32.4277V3.2832H36.7637V7.0918H39.752ZM42.916 23V1.78906H51.2363C56.0703 1.78906 58.8242 4.51367 58.8242 8.70312C58.8242 11.6035 57.4912 13.7129 55.0742 14.7383L59.5859 23H54.7227L50.6797 15.4707H47.3105V23H42.916ZM47.3105 11.8965H50.416C53.0234 11.8965 54.2832 10.8125 54.2832 8.70312C54.2832 6.56445 53.0234 5.39258 50.416 5.39258H47.3105V11.8965ZM68.668 23.3223C63.8633 23.3223 60.875 20.0117 60.875 15.0898C60.875 10.168 63.8633 6.88672 68.668 6.88672C73.4727 6.88672 76.4902 10.168 76.4902 15.0898C76.4902 20.0117 73.4727 23.3223 68.668 23.3223ZM68.6973 19.9531C70.9238 19.9531 72.0664 17.873 72.0664 15.0898C72.0664 12.2773 70.9238 10.1973 68.6973 10.1973C66.4414 10.1973 65.2695 12.2773 65.2695 15.0898C65.2695 17.873 66.4414 19.9531 68.6973 19.9531ZM86.3633 23.3223C81.5 23.3223 78.5703 19.9531 78.5703 15.0898C78.5703 10.2266 81.5293 6.88672 86.3633 6.88672C90.4648 6.88672 93.248 9.28906 93.4238 12.9219H89.3516C89.0879 11.3398 88.0625 10.2559 86.4219 10.2559C84.3418 10.2559 82.9648 12.0137 82.9648 15.0312C82.9648 18.1074 84.3125 19.8652 86.4219 19.8652C87.9453 19.8652 89.0879 18.9277 89.3516 17.2285H93.4238C93.2188 20.832 90.582 23.3223 86.3633 23.3223ZM96.1191 23V1.78906H100.455V13.1855H100.689L105.846 7.0918H110.826L104.908 13.9766L111.148 23H106.051L101.686 16.5254L100.455 17.9023V23H96.1191ZM119.381 23.3223C114.518 23.3223 111.529 20.1582 111.529 15.1191C111.529 10.1973 114.547 6.88672 119.205 6.88672C123.395 6.88672 126.676 9.52344 126.676 14.9434V16.1738H115.807C115.807 18.5762 117.242 20.0703 119.469 20.0703C120.934 20.0703 121.988 19.4258 122.428 18.459H126.559C125.943 21.3887 123.307 23.3223 119.381 23.3223ZM115.807 13.4492H122.574C122.574 11.5156 121.227 10.1387 119.293 10.1387C117.301 10.1387 115.88 11.6182 115.807 13.4492ZM137.779 7.0918V10.3438H134.791V18.1074C134.791 19.3672 135.406 19.6895 136.285 19.7188C136.725 19.7188 137.486 19.6895 138.014 19.6309V23.0586C137.545 23.1465 136.783 23.2051 135.699 23.2051C132.564 23.2051 130.426 21.7988 130.455 18.7227V10.3438H128.258V7.0918H130.455V3.2832H134.791V7.0918H137.779Z" fill="#40C463"/>
</svg>
